<?xml version="1.0" encoding="UTF-8"?>
<svg version="1.1" xmlns="http://www.w3.org/2000/svg" width="711" height="714">
<path d="M0 0 C234.63 0 469.26 0 711 0 C711 235.62 711 471.24 711 714 C476.37 714 241.74 714 0 714 C0 478.38 0 242.76 0 0 Z " fill="#FDFDFD" transform="translate(0,0)"/>
<path d="M0 0 C2.64527205 0.00317355 5.28943371 -0.02049276 7.93457031 -0.0456543 C34.48542286 -0.14424235 57.55618535 4.87356929 78.20800781 22.50317383 C83.20956777 28.27420455 87.15802296 34.49967933 89.58300781 41.75317383 C90.79854397 45.10110887 90.79854397 45.10110887 93.27832031 47.51098633 C94.60405152 48.10676027 95.9439307 48.6717161 97.29394531 49.21020508 C108.61320302 54.53138437 114.40703106 63.71948195 118.84863281 74.82348633 C124.69064544 93.09409445 119.71552387 115.503652 117.61816406 134.15551758 C117.49462555 135.25602699 117.49462555 135.25602699 117.36859131 136.37876892 C116.90684166 140.38093836 116.34532846 144.34820816 115.64550781 148.31567383 C116.36738281 148.50129883 117.08925781 148.68692383 117.83300781 148.87817383 C123.61966855 151.83580043 125.80453979 157.22704573 127.95800781 163.06567383 C133.23800138 180.42955513 127.04232873 202.41968593 118.79321289 218.0390625 C115.54736782 223.8760047 112.23666424 228.51368745 106.64550781 232.31567383 C105.98550781 232.31567383 105.32550781 232.31567383 104.64550781 232.31567383 C104.54882812 233.57379883 104.45214844 234.83192383 104.35253906 236.12817383 C103.72255932 241.76820265 102.10324937 246.9418588 100.33300781 252.31567383 C99.88924805 253.7155957 99.88924805 253.7155957 99.43652344 255.14379883 C96.56199137 264.0343602 92.87367499 272.25605242 88.27050781 280.37817383 C87.8812915 281.07354248 87.4920752 281.76891113 87.09106445 282.48535156 C84.62954031 286.81091296 82.02539941 290.76733634 78.64160156 294.44458008 C75.43970746 300.45911841 78.59581564 308.55104661 80.41894531 314.65551758 C83.4124914 323.58848792 87.13816926 327.53361557 95.45800781 331.69067383 C101.05036446 334.34160444 106.68844315 336.61365535 112.64550781 338.31567383 C112.64550781 338.97567383 112.64550781 339.63567383 112.64550781 340.31567383 C113.84175781 340.68692383 115.03800781 341.05817383 116.27050781 341.44067383 C122.90203092 343.64418625 129.24853741 346.51791001 135.64550781 349.31567383 C140.67841249 351.5154102 145.74852738 353.52976132 150.89550781 355.44067383 C151.60191406 355.70493164 152.30832031 355.96918945 153.03613281 356.24145508 C155.89407255 357.30776972 158.75142862 358.35098076 161.64550781 359.31567383 C161.64550781 359.97567383 161.64550781 360.63567383 161.64550781 361.31567383 C162.48082031 361.46262695 162.48082031 361.46262695 163.33300781 361.61254883 C168.19047551 362.56434993 172.20182784 363.92008372 176.55957031 366.24536133 C183.89108678 370.00722558 191.90110845 372.5477136 199.64550781 375.31567383 C199.64550781 375.97567383 199.64550781 376.63567383 199.64550781 377.31567383 C201.62550781 377.64567383 203.60550781 377.97567383 205.64550781 378.31567383 C205.64550781 378.97567383 205.64550781 379.63567383 205.64550781 380.31567383 C206.42925781 380.50129883 207.21300781 380.68692383 208.02050781 380.87817383 C220.78584369 385.94028978 234.93753779 398.60709086 241.20800781 410.81567383 C242.64550781 414.31567383 242.64550781 414.31567383 242.64550781 416.31567383 C243.30550781 416.31567383 243.96550781 416.31567383 244.64550781 416.31567383 C253.81093821 437.94820264 266.3717095 473.16068464 258.91894531 496.60083008 C256.98938626 500.4207295 254.49897354 502.58161425 250.64550781 504.31567383 C246.57087757 505.50553039 242.60166027 505.45530932 238.38818169 505.44430828 C237.54406381 505.44606132 236.69994592 505.44781436 235.83024871 505.44962052 C232.9827534 505.45429722 230.13530877 505.45181071 227.28781128 505.4493866 C225.23321018 505.45125374 223.17860943 505.45355405 221.12400925 505.45625192 C215.46296342 505.46238849 209.80193232 505.46223414 204.14088392 505.46105754 C198.04118082 505.460854 191.9414825 505.4663679 185.84178162 505.47111511 C173.88477666 505.47943278 161.92777797 505.48218341 149.97077088 505.48272749 C140.25270076 505.4831868 130.53463225 505.48524392 120.81656265 505.48842812 C118.02051262 505.48932565 115.22446259 505.49021546 112.42841256 505.49110299 C111.38577895 505.49143457 111.38577895 505.49143457 110.32208204 505.49177284 C90.76490195 505.49792879 71.20772241 505.50187323 51.65054131 505.50142956 C50.91291028 505.50141398 50.17527926 505.5013984 49.41529579 505.50138235 C45.67658063 505.50129924 41.93786547 505.5012002 38.19915031 505.50109764 C37.45661475 505.5010777 36.71407919 505.50105775 35.94904255 505.5010372 C34.4474529 505.50099676 32.94586325 505.50095497 31.4442736 505.50091181 C8.08816836 505.50029922 -15.26792235 505.50780195 -38.62402344 505.52148438 C-64.8589652 505.5368469 -91.09389741 505.54545046 -117.32884395 505.54452115 C-120.12678011 505.54444652 -122.92471627 505.54439782 -125.72265244 505.54436684 C-126.41158429 505.54435518 -127.10051615 505.54434353 -127.81032473 505.54433152 C-138.89546567 505.54430075 -149.98059399 505.55068584 -161.06573117 505.5592991 C-172.20924484 505.56777855 -183.35274029 505.5685918 -194.49625702 505.56218978 C-200.53283463 505.55892032 -206.56936657 505.55888326 -212.60593987 505.56754303 C-218.13292798 505.57539023 -223.65983407 505.57399476 -229.18682013 505.5652589 C-231.18551973 505.56371997 -233.1842254 505.56555483 -235.18291785 505.57111897 C-260.33193407 505.63648961 -260.33193407 505.63648961 -265.91699219 500.37817383 C-272.85790638 491.65753805 -269.26627356 475.51290863 -268.10839844 464.96411133 C-264.49543429 435.88762627 -254.91211126 407.72271005 -231.36621094 388.71020508 C-226.77360983 385.31567383 -226.77360983 385.31567383 -224.35449219 385.31567383 C-224.35449219 384.65567383 -224.35449219 383.99567383 -224.35449219 383.31567383 C-211.09427285 376.03750832 -211.09427285 376.03750832 -204.35449219 373.31567383 C-202.99017758 372.69554642 -201.62699424 372.07292707 -200.26464844 371.44848633 C-195.44609904 369.30001696 -190.53695989 367.56590485 -185.54199219 365.87817383 C-174.62702379 362.11542686 -164.12121836 357.75564948 -153.69116211 352.8137207 C-141.57365211 347.07410797 -141.57365211 347.07410797 -135.35449219 346.31567383 C-135.35449219 345.65567383 -135.35449219 344.99567383 -135.35449219 344.31567383 C-134.54367188 344.10813477 -133.73285156 343.9005957 -132.89746094 343.68676758 C-125.66274824 341.67384984 -120.06003347 339.09965518 -113.87792969 334.86645508 C-110.41264549 332.73686092 -107.33999703 331.99245767 -103.35449219 331.31567383 C-103.35449219 330.65567383 -103.35449219 329.99567383 -103.35449219 329.31567383 C-101.96857984 328.41246172 -100.54405879 327.56815428 -99.10449219 326.75317383 C-92.37781874 322.39192401 -90.80882386 316.80092839 -89.10449219 309.25317383 C-87.47133719 301.01700424 -87.97819814 295.76976995 -92.35449219 288.75317383 C-93.18501913 287.34366507 -94.01442208 285.9334935 -94.84277344 284.52270508 C-95.26381348 283.81839355 -95.68485352 283.11408203 -96.11865234 282.38842773 C-102.84683885 271.10389525 -107.61417429 259.91687461 -111.35449219 247.31567383 C-111.69609375 246.1787207 -112.03769531 245.04176758 -112.38964844 243.87036133 C-113.55920577 239.79051018 -114.35449219 236.59325722 -114.35449219 232.31567383 C-114.91136719 232.25379883 -115.46824219 232.19192383 -116.04199219 232.12817383 C-123.14034189 229.63415907 -127.86534468 220.53668936 -131.35449219 214.31567383 C-133.4370661 209.39565988 -134.96797723 204.46258542 -136.35449219 199.31567383 C-136.67417969 198.15551758 -136.99386719 196.99536133 -137.32324219 195.80004883 C-140.13731677 183.97051309 -142.55223125 167.66512712 -137.22949219 156.31567383 C-134.76070584 152.44720519 -131.85557113 149.27214049 -128.35449219 146.31567383 C-127.69449219 146.31567383 -127.03449219 146.31567383 -126.35449219 146.31567383 C-126.49081055 145.05013672 -126.49081055 145.05013672 -126.62988281 143.7590332 C-134.6054757 68.37945526 -134.6054757 68.37945526 -111.52246094 38.55004883 C-95.47743219 18.75440339 -75.13731252 9.93167185 -50.66699219 4.62817383 C-49.74861572 4.42554932 -48.83023926 4.2229248 -47.8840332 4.01416016 C-32.10216449 0.77785771 -16.07166157 -0.04007526 0 0 Z " fill="#020202" transform="translate(360.3544921875,145.684326171875)"/>
<path d="M0 0 C8.61827327 6.71873549 14.40710582 14.00545533 18.99609375 23.86328125 C19.65609375 24.85328125 20.31609375 25.84328125 20.99609375 26.86328125 C21.43348071 28.57773014 21.80458063 30.30995909 22.12109375 32.05078125 C22.28867187 32.95183594 22.45625 33.85289062 22.62890625 34.78125 C22.75007812 35.46832031 22.87125 36.15539062 22.99609375 36.86328125 C26.11758629 37.9260184 29.23472743 38.93134515 32.40625 39.8359375 C48.16538553 44.53839612 60.47658254 53.51463079 68.99609375 67.86328125 C77.31598372 85.68225819 78.61163984 104.33346024 71.99609375 122.86328125 C65.65401926 139.4914078 54.06190369 153.1542872 38.09765625 161.3515625 C26.80577445 166.37511621 15.49878874 168.31734662 3.20776367 168.26733398 C2.00261612 168.27419724 0.79746857 168.28106049 -0.44419861 168.28813171 C-3.70897669 168.30315653 -6.97339074 168.30493251 -10.23818803 168.29918933 C-12.98363896 168.29606741 -15.72903992 168.30222307 -18.47448367 168.30822808 C-24.96260617 168.32220749 -31.45059683 168.32076821 -37.9387207 168.30932617 C-44.58656579 168.29786003 -51.23400671 168.31191012 -57.88179857 168.33872265 C-63.63091163 168.36102477 -69.37989918 168.36748444 -75.12905234 168.36164623 C-78.54442932 168.35830878 -81.95954772 168.36047301 -85.37488747 168.37789726 C-117.80355267 168.50566877 -117.80355267 168.50566877 -130.00390625 161.86328125 C-130.00390625 161.20328125 -130.00390625 160.54328125 -130.00390625 159.86328125 C-130.78765625 159.71890625 -131.57140625 159.57453125 -132.37890625 159.42578125 C-135.00390625 158.86328125 -135.00390625 158.86328125 -137.00390625 157.86328125 C-137.00390625 157.20328125 -137.00390625 156.54328125 -137.00390625 155.86328125 C-137.71933594 155.63511719 -138.43476563 155.40695312 -139.171875 155.171875 C-142.59367053 153.59076948 -144.667617 151.59811529 -147.31640625 148.92578125 C-148.19941406 148.05050781 -149.08242188 147.17523438 -149.9921875 146.2734375 C-152.00390625 143.86328125 -152.00390625 143.86328125 -152.00390625 140.86328125 C-152.66390625 140.86328125 -153.32390625 140.86328125 -154.00390625 140.86328125 C-154.39206664 134.66959156 -152.99580269 129.61683424 -151.12890625 123.73828125 C-150.85949219 122.85785156 -150.59007812 121.97742188 -150.3125 121.0703125 C-146.65137352 109.22969369 -146.65137352 109.22969369 -142.44140625 105.11328125 C-128.3200674 89.53111424 -123.19580093 67.90013925 -121.02783203 47.52636719 C-120.88643799 46.28161621 -120.88643799 46.28161621 -120.7421875 45.01171875 C-120.67040283 44.28130371 -120.59861816 43.55088867 -120.5246582 42.79833984 C-119.86641455 40.35237679 -119.02059783 39.37712091 -117.00390625 37.86328125 C-114.35394299 37.64607115 -111.95314067 37.57976571 -109.31640625 37.67578125 C-108.26356445 37.69608398 -108.26356445 37.69608398 -107.18945312 37.71679688 C-105.46060796 37.75207943 -103.7321586 37.80588542 -102.00390625 37.86328125 C-101.96265625 36.62578125 -101.92140625 35.38828125 -101.87890625 34.11328125 C-100.7374898 24.03076932 -94.53665554 15.31928847 -88.00390625 7.86328125 C-87.43285156 7.18652344 -86.86179687 6.50976562 -86.2734375 5.8125 C-63.87960631 -18.77774107 -25.7345916 -18.30535969 0 0 Z " fill="#030303" transform="translate(624.00390625,277.13671875)"/>
<path d="M0 0 C4.81166831 0.24058342 8.42667159 1.67620789 12.1796875 4.6015625 C15.55613314 9.05035568 16.0938364 14.53779732 17.1484375 19.921875 C18.78317498 28.22709301 23.10949401 35.5702945 30.10546875 40.4765625 C39.39597461 45.94532843 48.11012868 46.34067627 58.6875 46.3125 C59.87794922 46.32861328 61.06839844 46.34472656 62.29492188 46.36132812 C74.15737121 46.36777861 85.82054003 45.13809266 95 37 C102.67741434 29.12054844 105.47521299 17.53489205 107 7 C112.28 7 117.56 7 123 7 C124.3125 14.0625 124.3125 14.0625 124.7043457 16.24243164 C126.35664745 24.79271477 130.03075205 32.6082463 136 39 C144.12543102 44.20705714 153.44270712 46.34027854 163 46.1953125 C163.7211499 46.1924826 164.4422998 46.18965271 165.18530273 46.18673706 C167.45704747 46.17566696 169.72837727 46.15058895 172 46.125 C173.55337967 46.1149531 175.1067656 46.10583027 176.66015625 46.09765625 C180.44026062 46.07577111 184.22006032 46.04133514 188 46 C188 45.34 188 44.68 188 44 C189.010625 43.731875 190.02125 43.46375 191.0625 43.1875 C198.53296918 40.98853125 203.77151057 38.71149776 208 32 C210.72222911 26.24285329 212.13278314 20.42010053 213.3125 14.1875 C214.45333424 8.88041475 215.85150192 6.18851947 220.28125 3.05078125 C220.8484375 2.70402344 221.415625 2.35726563 222 2 C222.99 1.34 223.98 0.68 225 0 C227.125 0.25 227.125 0.25 229 1 C233.58551798 10.17103596 229.03223199 24.86379611 226 34 C223.09638374 41.0405411 219.37550534 45.26043266 212.91894531 49.30297852 C210.44903598 51.48724566 210.10602423 53.08615189 209.359375 56.27734375 C208.96697632 57.86905396 208.96697632 57.86905396 208.56665039 59.49291992 C208.29715576 60.62963135 208.02766113 61.76634277 207.75 62.9375 C202.2157245 84.76270571 193.98778519 105.17556515 180 123 C179.31292969 123.91394531 178.62585938 124.82789063 177.91796875 125.76953125 C170.76380658 134.98615459 162.35948166 142.7295326 151.8828125 148.04296875 C149.82965874 149.03582104 149.82965874 149.03582104 147.4375 150.75 C143.9810246 152.52255149 140.86095945 152.67280005 137 153 C137 153.66 137 154.32 137 155 C118.4104808 160.79413585 97.91402562 159.68517494 80.4375 151 C68.32814746 143.96002859 58.32656348 135.23819762 50 124 C48.66910876 122.33138259 47.33598083 120.66454522 46 119 C42.52378439 114.52917313 40.17876222 110.26534204 38 105 C37.18212897 103.51222803 36.34775189 102.03345045 35.5 100.5625 C33.58331017 97.17539439 32.05749127 93.86007739 30.78979492 90.18457031 C29.98383295 87.95528199 29.07242515 85.79216214 28.1484375 83.609375 C26.51649266 79.55832942 25.24626032 75.50831452 24.10546875 71.29296875 C23.78900391 70.12958984 23.47253906 68.96621094 23.14648438 67.76757812 C22.50305056 65.36551256 21.87562135 62.95910692 21.26367188 60.54882812 C19.39966207 53.22116527 19.39966207 53.22116527 14.43359375 47.85546875 C13.30050781 47.24316406 12.16742188 46.63085938 11 46 C2.07230827 38.36523973 -0.79055767 24.22566891 -2 13 C-2.598345 3.8975175 -2.598345 3.8975175 0 0 Z " fill="#FBFBFB" transform="translate(241,312)"/>
<path d="M0 0 C1.69131864 -0.00701996 1.69131864 -0.00701996 3.41680533 -0.01418173 C7.18526312 -0.02612294 10.95335668 -0.01667753 14.72181702 -0.00723267 C17.42757922 -0.00964883 20.13332609 -0.01653261 22.83908081 -0.02316284 C29.4197221 -0.03648363 36.00026058 -0.03362972 42.58090585 -0.02492492 C47.93104706 -0.01814168 53.28115951 -0.01723442 58.63130379 -0.02049637 C59.39362106 -0.02095607 60.15593834 -0.02141577 60.94135614 -0.0218894 C62.4901443 -0.0228486 64.03893244 -0.02382124 65.58772058 -0.02480717 C80.10181239 -0.03335637 94.61584731 -0.02353462 109.12992979 -0.00740607 C121.5736733 0.00599399 134.01733284 0.00367069 146.46107483 -0.01016235 C160.92272036 -0.02623114 175.38431605 -0.0325296 189.84596926 -0.02332556 C191.38927209 -0.02236995 192.93257492 -0.02142684 194.47587776 -0.02049637 C195.23514588 -0.02003354 195.99441401 -0.01957072 196.77669026 -0.01909386 C202.11759756 -0.01650767 207.45847314 -0.02086703 212.79937553 -0.02793503 C219.31227535 -0.03636479 225.82506675 -0.03403908 232.33795422 -0.0180928 C235.65863934 -0.01022933 238.97899504 -0.00871063 242.29970169 -0.01704025 C245.90465188 -0.02524857 249.50909566 -0.01494184 253.11401367 0 C254.67735747 -0.01003825 254.67735747 -0.01003825 256.27228397 -0.02027929 C263.54280092 0.0380939 270.08420175 0.94603504 276.17909241 5.14266968 C276.79913147 5.77817749 277.41917053 6.4136853 278.05799866 7.06845093 C278.69608459 7.69106812 279.33417053 8.3136853 279.99159241 8.95516968 C283.73210973 14.52558036 283.91133178 21.09982553 283.81581116 27.59970093 C283.81156631 28.71471985 283.81156631 28.71471985 283.80723572 29.8522644 C283.79616022 32.1953331 283.77108094 34.5380004 283.74549866 36.88095093 C283.73545247 38.48250785 283.72632951 40.08407085 283.71815491 41.68563843 C283.69797524 45.58434994 283.65880508 49.48220829 283.62049866 53.38095093 C276.36049866 53.38095093 269.10049866 53.38095093 261.62049866 53.38095093 C261.29049866 43.48095093 260.96049866 33.58095093 260.62049866 23.38095093 C172.18049866 23.05095093 83.74049866 22.72095093 -7.37950134 22.38095093 C-7.23512634 49.56470093 -7.09075134 76.74845093 -6.94200134 104.75595093 C-6.89889832 113.35190308 -6.85579529 121.94785522 -6.81138611 130.80429077 C-6.7681518 138.48295972 -6.7681518 138.48295972 -6.72360229 146.16162109 C-6.70373349 149.59235828 -6.68665582 153.02309741 -6.67123413 156.45385742 C-6.65150269 160.82334293 -6.62708327 165.1927781 -6.59919536 169.5622189 C-6.58974575 171.16996708 -6.58197575 172.77772617 -6.5760318 174.38549113 C-6.567797 176.54918437 -6.55354795 178.71275481 -6.53771973 180.87640381 C-6.53126718 182.09132696 -6.52481462 183.30625011 -6.51816654 184.55798912 C-6.57188211 187.33185046 -6.57188211 187.33185046 -5.37950134 189.38095093 C47.75049866 189.71095093 100.88049866 190.04095093 155.62049866 190.38095093 C155.62049866 202.38095093 155.62049866 202.38095093 152.87049866 206.13095093 C152.32393616 206.67106812 151.77737366 207.2111853 151.21424866 207.76766968 C146.47289154 212.56713166 145.37609379 218.12928766 144.51112366 224.65829468 C144.25637268 226.54729492 144.25637268 226.54729492 143.99647522 228.47445679 C143.87240295 229.43359985 143.74833069 230.39274292 143.62049866 231.38095093 C123.67958205 231.45108213 103.73869052 231.50395925 83.79767609 231.53638744 C74.53837965 231.5518457 65.27915992 231.57291531 56.01991272 231.60726929 C47.94803519 231.63720352 39.87621321 231.6565335 31.80428171 231.66321641 C27.53162157 231.66712185 23.25912036 231.67627846 18.98651123 231.6981411 C14.96134268 231.71856988 10.93639787 231.72477187 6.9111824 231.72027397 C5.43742785 231.72109632 3.96366548 231.72702389 2.4899559 231.73856735 C-6.49857045 231.80549428 -13.32030047 231.55765845 -21.06700134 226.69345093 C-26.93511798 220.82533429 -29.4726238 215.1172648 -29.52723104 206.85983551 C-29.52704668 206.12735505 -29.52686231 205.39487459 -29.52667236 204.64019775 C-29.53034905 203.85571011 -29.53402574 203.07122246 -29.53781384 202.26296246 C-29.54883584 199.63154964 -29.55269202 197.00017633 -29.5565033 194.3687439 C-29.56276912 192.48292414 -29.56941603 190.59710562 -29.57641602 188.71128845 C-29.5974465 182.51524717 -29.60781817 176.31920568 -29.61778259 170.12313843 C-29.62183067 167.98865877 -29.62594761 165.85417925 -29.63013268 163.71969986 C-29.64918293 153.69024197 -29.66341373 143.66079143 -29.67174464 133.63131893 C-29.68151369 122.06204894 -29.70782533 110.49297045 -29.74824554 98.92376792 C-29.77842957 89.97668194 -29.79321574 81.02965078 -29.79652566 72.08251488 C-29.79887372 66.74119133 -29.8078025 61.4000724 -29.83298683 56.05880356 C-29.85631218 51.03054712 -29.86048278 46.00262938 -29.85022545 40.97433281 C-29.84973105 39.13375279 -29.85602311 37.29315585 -29.86978149 35.45262718 C-30.01923815 14.26522173 -30.01923815 14.26522173 -22.62950134 5.94345093 C-15.87055251 0.16150283 -8.48523642 -0.05436743 0 0 Z " fill="#020202" transform="translate(64.37950134277344,82.61904907226563)"/>
<path d="M0 0 C1.72265625 1.80078125 1.72265625 1.80078125 3.0625 4.3125 C3.5575 5.23675781 4.0525 6.16101563 4.5625 7.11328125 C5.036875 8.06589844 5.51125 9.01851562 6 10 C6.433125 10.81855469 6.86625 11.63710937 7.3125 12.48046875 C13.77456772 25.505574 18.0657515 41.64746838 18.01635742 56.18554688 C18.01399582 57.08688354 18.01163422 57.98822021 18.00920105 58.91687012 C18.00464653 59.94801941 18.00464653 59.94801941 18 61 C17.44306458 60.99555878 16.88612915 60.99111755 16.31231689 60.98654175 C10.40517806 60.94157116 4.49808936 60.91183547 -1.40917969 60.89013672 C-3.60060609 60.88020772 -5.79201973 60.86666007 -7.98339844 60.84912109 C-19.01938732 60.76313951 -30.01497099 60.7811725 -41.015625 61.7578125 C-41.79669617 61.8190329 -42.57776733 61.8802533 -43.38250732 61.94332886 C-50.09621829 62.63799818 -56.25248872 64.73330319 -61.5 69.0625 C-63.19350214 71.0293236 -63.19350214 71.0293236 -64 74 C-67.74941253 74.17432891 -71.49778509 74.28085841 -75.25 74.375 C-76.31347656 74.42527344 -77.37695312 74.47554688 -78.47265625 74.52734375 C-81.42466965 74.58304212 -84.10069151 74.56535364 -87 74 C-89.296875 71.2265625 -89.296875 71.2265625 -91 68 C-96.41227512 64.21969736 -101.26834742 63.05627569 -107.7578125 62.26171875 C-108.70778107 62.13947433 -109.65774963 62.01722992 -110.63650513 61.89128113 C-122.69069221 60.49159836 -134.76028298 60.6752252 -146.875 60.8125 C-149.23176212 60.82759912 -151.58853378 60.84127813 -153.9453125 60.85351562 C-159.63042212 60.88604906 -165.31516393 60.93581965 -171 61 C-170.07645215 46.22452435 -168.27511723 32.59608733 -162 19 C-161.50757813 17.92621094 -161.01515625 16.85242188 -160.5078125 15.74609375 C-159.69957031 14.23208984 -159.69957031 14.23208984 -158.875 12.6875 C-158.39804687 11.78386719 -157.92109375 10.88023437 -157.4296875 9.94921875 C-153.34682137 6.67373612 -149.0255668 7.50441789 -144 8 C-139.38669571 8.64747521 -134.82450095 9.49789597 -130.25 10.375 C-90.13158487 17.64399279 -50.79850833 16.95969283 -12.36694336 2.18481445 C-4.49910278 -0.79200182 -4.49910278 -0.79200182 0 0 Z " fill="#FBFBFB" transform="translate(432,229)"/>
<path d="M0 0 C6.49551173 3.3230158 9.88816288 6.77632576 13.125 13.25 C15.11747324 19.81187854 14.97414017 26.17512815 12.125 32.4375 C8.96806741 38.14150321 4.51465351 42.69469426 -1.44921875 45.43115234 C-4.16029107 47.06561803 -4.16029107 47.06561803 -4.6171875 50.2175293 C-4.73548655 53.43008801 -4.84885114 56.63925717 -4.85644531 59.85424805 C-4.87483375 61.91883455 -4.97812251 63.96770617 -5.0859375 66.02929688 C-5.23728779 73.63156281 -5.23728779 73.63156281 -1.4609375 79.92041016 C1.32015537 81.95073637 4.08335154 83.64360153 7.125 85.25 C11.4096278 88.10641853 12.71831182 91.36106904 14.125 96.25 C15.17044228 105.67034398 14.25586508 112.4069185 8.4375 119.9375 C4.0867476 124.63758289 0.14763704 126.94566126 -6.2890625 127.59375 C-15.47539534 127.82582578 -21.39021317 126.14095943 -28.265625 119.98046875 C-33.06230343 114.8228752 -34.38545982 109.10356251 -34.875 102.25 C-35.75567139 101.97454346 -36.63634277 101.69908691 -37.54370117 101.4152832 C-40.60247355 100.34532933 -43.31315642 99.11204402 -46.17578125 97.60546875 C-47.15353516 97.09306641 -48.13128906 96.58066406 -49.13867188 96.05273438 C-50.14478516 95.51970703 -51.15089844 94.98667969 -52.1875 94.4375 C-53.18201172 93.91607422 -54.17652344 93.39464844 -55.20117188 92.85742188 C-60.52496454 90.0574495 -65.78753018 87.1970857 -70.95703125 84.12011719 C-75.09208629 82.24418336 -78.78867449 83.85707375 -82.8125 85.3125 C-89.85399429 87.46805948 -96.32624188 86.37126062 -102.875 83.25 C-108.25234493 79.85211078 -112.24557075 75.47058579 -113.875 69.25 C-114.75750284 61.6488199 -115.29388798 54.20150306 -110.4296875 47.89453125 C-104.38467904 41.50018813 -99.58886768 38.27672985 -90.5625 37.875 C-82.80676768 38.02272823 -76.53036962 40.94809098 -70.875 46.25 C-70.545 46.91 -70.215 47.57 -69.875 48.25 C-63.87414769 47.60577331 -59.03304357 44.1919601 -53.91040039 41.24145508 C-53.11496826 40.78407959 -52.31953613 40.3267041 -51.5 39.85546875 C-50.71625 39.40478027 -49.9325 38.9540918 -49.125 38.48974609 C-47.13223485 37.39173595 -45.13774964 36.41735626 -43.0625 35.48828125 C-39.88273926 33.97101561 -37.40099187 32.71001447 -34.875 30.25 C-33.92994144 26.84603909 -33.81098186 23.93284708 -33.85546875 20.40625 C-33.89274976 14.38163944 -31.61561883 9.1166444 -27.50390625 4.63671875 C-19.43749079 -2.23037354 -9.82318286 -4.08892023 0 0 Z " fill="#050505" transform="translate(199.875,126.75)"/>
<path d="M0 0 C1.670625 0.061875 1.670625 0.061875 3.375 0.125 C4.87656874 3.12813748 4.46781204 5.91567522 4.4375 9.25 C4.42847656 10.53132813 4.41945313 11.81265625 4.41015625 13.1328125 C4.39855469 14.12023437 4.38695312 15.10765625 4.375 16.125 C5.10203125 16.19976562 5.8290625 16.27453125 6.578125 16.3515625 C15.65676995 17.53876992 23.96348232 20.29062824 30.97265625 26.3828125 C33.16372826 28.34413724 33.16372826 28.34413724 35.47265625 28.06640625 C37.64240504 26.99267019 39.08263243 25.75241682 40.8125 24.0625 C44.02579886 21.1870802 44.02579886 21.1870802 47.1875 20.625 C49.375 21.125 49.375 21.125 51.375 23.125 C51.8125 25.48046875 51.8125 25.48046875 51.375 28.125 C49.1875 30.36328125 49.1875 30.36328125 46.375 32.4375 C45.446875 33.13488281 44.51875 33.83226562 43.5625 34.55078125 C42.840625 35.07027344 42.11875 35.58976562 41.375 36.125 C41.55675781 36.67027344 41.73851562 37.21554687 41.92578125 37.77734375 C42.45898795 39.37696386 42.98580472 40.97872163 43.5078125 42.58203125 C44.03845465 44.13810349 44.60803069 45.68238421 45.2421875 47.19921875 C48.10484709 54.35586772 47.6447442 61.5421908 47.375 69.125 C48.20644531 69.24617188 49.03789063 69.36734375 49.89453125 69.4921875 C50.98121094 69.65976562 52.06789063 69.82734375 53.1875 70 C54.26644531 70.16242188 55.34539062 70.32484375 56.45703125 70.4921875 C59.375 71.125 59.375 71.125 62.375 73.125 C62.80913997 75.94690981 62.72640315 77.50487679 61.3125 80 C56.64834783 82.70821739 49.34832137 79.43376878 44.375 78.125 C44.065625 79.3315625 44.065625 79.3315625 43.75 80.5625 C41.9394127 85.2535671 39.28721027 89.05092346 36.375 93.125 C35.715 94.053125 35.055 94.98125 34.375 95.9375 C31.98817194 98.54809319 29.38012034 100.28094888 26.375 102.125 C26.65741641 103.58515291 26.95126614 105.04309793 27.25 106.5 C27.41242188 107.31210937 27.57484375 108.12421875 27.7421875 108.9609375 C28.24158932 111.31173923 28.24158932 111.31173923 30.375 113.125 C29.79807692 119.70192308 29.79807692 119.70192308 28.375 121.125 C25.66423972 121.41034319 23.98576177 121.49581965 21.625 120.0625 C19.79594252 117.22746091 19.68745191 114.43699025 19.375 111.125 C18.715 111.125 18.055 111.125 17.375 111.125 C17.045 110.465 16.715 109.805 16.375 109.125 C15.42753906 109.23328125 15.42753906 109.23328125 14.4609375 109.34375 C3.36354787 110.4950642 -7.14243242 111.46261417 -17.625 107.125 C-17.80675781 107.80046875 -17.98851562 108.4759375 -18.17578125 109.171875 C-18.55283203 110.50992188 -18.55283203 110.50992188 -18.9375 111.875 C-19.18113281 112.75671875 -19.42476562 113.6384375 -19.67578125 114.546875 C-20.66100539 117.22279242 -21.70111264 119.02709267 -23.625 121.125 C-26.1875 121.5 -26.1875 121.5 -28.625 121.125 C-30.625 119.125 -30.625 119.125 -31 116.5 C-30.5712991 112.64169192 -29.31125153 110.3202721 -27.3046875 107.0546875 C-26.39707258 105.10027386 -26.39707258 105.10027386 -27.30859375 103.01171875 C-28.66515756 100.81436283 -28.66515756 100.81436283 -31.8125 99.0625 C-36.95205331 95.6182482 -39.5791042 90.37238484 -42.625 85.125 C-43.18703125 84.2278125 -43.7490625 83.330625 -44.328125 82.40625 C-45.625 80.125 -45.625 80.125 -45.625 78.125 C-46.36105469 78.35316406 -47.09710937 78.58132813 -47.85546875 78.81640625 C-48.83128906 79.10386719 -49.80710937 79.39132812 -50.8125 79.6875 C-52.25689453 80.12255859 -52.25689453 80.12255859 -53.73046875 80.56640625 C-56.79823966 81.15843222 -58.66220866 81.06142628 -61.625 80.125 C-63.625 78.125 -63.625 78.125 -63.9375 75.625 C-63.834375 74.8 -63.73125 73.975 -63.625 73.125 C-60.3438698 70.93757986 -58.29415644 70.58057194 -54.4375 70 C-53.35082031 69.83242188 -52.26414062 69.66484375 -51.14453125 69.4921875 C-50.31308594 69.37101562 -49.48164062 69.24984375 -48.625 69.125 C-48.67140625 68.09761719 -48.7178125 67.07023437 -48.765625 66.01171875 C-49.04237951 57.18015097 -48.40146942 50.27351107 -44.625 42.125 C-44.04001877 40.72985648 -43.45645926 39.33411505 -42.875 37.9375 C-42.4625 37.009375 -42.05 36.08125 -41.625 35.125 C-42.429375 34.7846875 -42.429375 34.7846875 -43.25 34.4375 C-46.46659531 32.65990786 -48.99501807 30.69520962 -51.625 28.125 C-52.125 25.4375 -52.125 25.4375 -51.625 23.125 C-50.965 22.465 -50.305 21.805 -49.625 21.125 C-45.15184944 21.20939907 -43.23561593 21.499491 -40.0625 24.75 C-37.83389084 27.46219384 -37.83389084 27.46219384 -34.625 27.1875 C-31.26348235 25.9969625 -29.30160738 24.45845259 -26.625 22.125 C-22.85310507 19.55115895 -19.45107449 18.40445756 -15 17.4375 C-13.87335937 17.18613281 -12.74671875 16.93476563 -11.5859375 16.67578125 C-8.625 16.125 -8.625 16.125 -5.625 16.125 C-5.64820313 15.13757813 -5.67140625 14.15015625 -5.6953125 13.1328125 C-5.71335937 11.85148437 -5.73140625 10.57015625 -5.75 9.25 C-5.77320313 7.97382813 -5.79640625 6.69765625 -5.8203125 5.3828125 C-5.53717715 0.66011483 -4.70125367 0.1621122 0 0 Z " fill="#F2F2F2" transform="translate(582.625,311.875)"/>
<path d="M0 0 C20.79 0 41.58 0 63 0 C63.99 7.425 63.99 7.425 65 15 C65.7209229 18.19265854 66.45241579 21.25229619 67.375 24.375 C67.59051514 25.13103516 67.80603027 25.88707031 68.02807617 26.66601562 C69.59440825 32.01126074 71.57883704 36.97832867 74 42 C74 42.66 74 43.32 74 44 C60.63956546 44.04630217 47.27914996 44.08185846 33.91865158 44.10362434 C27.71510742 44.11406987 21.51161808 44.12824319 15.30810547 44.15087891 C9.32348338 44.17257973 3.33891407 44.18456283 -2.64574432 44.18975449 C-4.93113791 44.1934552 -7.21652855 44.20068157 -9.50189972 44.21146011 C-12.69827054 44.22593821 -15.89442208 44.22797947 -19.09082031 44.22705078 C-20.03956528 44.23424133 -20.98831024 44.24143188 -21.96580505 44.24884033 C-22.83796158 44.246091 -23.7101181 44.24334167 -24.60870361 44.24050903 C-25.36457386 44.24235262 -26.12044411 44.24419621 -26.89921951 44.24609566 C-29.34987396 43.95901406 -30.92353498 43.32593134 -33 42 C-35.11871731 37.50674503 -35.1748575 33.71220357 -34.8125 28.8125 C-34.73644531 27.60207031 -34.66039063 26.39164062 -34.58203125 25.14453125 C-33.95407765 21.75189602 -33.70411804 20.98012392 -31 19 C-28.36450195 18.56762695 -28.36450195 18.56762695 -25.23828125 18.48828125 C-24.12001953 18.45283203 -23.00175781 18.41738281 -21.84960938 18.38085938 C-20.68236328 18.35830078 -19.51511719 18.33574219 -18.3125 18.3125 C-16.54422852 18.26125977 -16.54422852 18.26125977 -14.74023438 18.20898438 C-11.82691775 18.12642075 -8.91390534 18.05729678 -6 18 C-3.67929592 12.03247521 -1.85178736 6.17262452 0 0 Z " fill="#020202" transform="translate(145,326)"/>
<path d="M0 0 C0.66 0 1.32 0 2 0 C3.13740128 1.13740128 4.2709132 2.27890545 5.38671875 3.4375 C13.16385468 10.96983504 21.67459795 15.90940347 32 19 C32 19.66 32 20.32 32 21 C34.04788194 21.45900802 36.0967038 21.91399664 38.1484375 22.35546875 C40.10074271 22.79674322 42.04373239 23.28079415 43.9765625 23.80078125 C65.51684473 29.2244084 89.95441565 26.55421288 109.453125 15.625 C110.29359375 15.08875 111.1340625 14.5525 112 14 C113.29354539 13.20714855 114.58789155 12.41560282 115.8828125 11.625 C117.29721348 10.75054725 118.71126863 9.87553491 120.125 9 C120.84042969 8.56171875 121.55585938 8.1234375 122.29296875 7.671875 C122.98261719 7.24390625 123.67226563 6.8159375 124.3828125 6.375 C125.00559082 5.99085938 125.62836914 5.60671875 126.27001953 5.2109375 C128.06855864 4.03283491 128.06855864 4.03283491 129.60107422 2.3515625 C131 1 131 1 133 1 C133.50961846 2.39235043 134.00724909 3.78909118 134.5 5.1875 C134.91765625 6.35345703 134.91765625 6.35345703 135.34375 7.54296875 C136.06708214 10.25115871 136.36327131 12.21344325 136 15 C127.04940012 27.54978291 110.76713347 36.77760725 98 45 C97.22914063 45.50273437 96.45828125 46.00546875 95.6640625 46.5234375 C91.12739121 49.43061053 86.4208056 51.98279208 81.66015625 54.50390625 C79.27062584 55.8477978 77.14799821 57.32539928 74.9375 58.9375 C71.13540565 61.2955666 68.26715836 61.54269325 63.875 60.86328125 C57.89130804 59.06654766 52.45063015 56.0080567 47 53 C47 52.34 47 51.68 47 51 C46.0925 50.835 45.185 50.67 44.25 50.5 C33.56124934 47.40927692 23.60122651 37.84746994 15 31 C14.4337793 30.5570459 13.86755859 30.1140918 13.28417969 29.65771484 C11.81787136 28.48475408 10.40401622 27.24685023 9 26 C9 25.34 9 24.68 9 24 C8.278125 23.7525 7.55625 23.505 6.8125 23.25 C3.72141583 21.87618481 1.54778693 20.21255181 -1 18 C-1.61875 17.5875 -2.2375 17.175 -2.875 16.75 C-4.50933466 14.20770164 -4.00232414 12.02252848 -3.52734375 9.140625 C-2.72388941 5.87919554 -1.45040137 3.0269246 0 0 Z " fill="#F7F7F7" transform="translate(289,463)"/>
<path d="M0 0 C2.01953125 1.09375 2.01953125 1.09375 3.8125 2.5 C4.41707031 2.9640625 5.02164063 3.428125 5.64453125 3.90625 C6.09183594 4.2671875 6.53914063 4.628125 7 5 C6.43296877 9.99146648 5.33564822 14.30347848 3.56640625 19 C3.20940895 19.9590625 3.20940895 19.9590625 2.84519958 20.9375 C2.09089478 22.96087637 1.32728403 24.98056395 0.5625 27 C-0.19716569 29.01997067 -0.95474678 31.04068409 -1.70948792 33.0625 C-2.39523856 34.89737248 -3.08696997 36.73000651 -3.77905273 38.5625 C-5.00693034 42.01951195 -6.03051265 45.46372512 -7 49 C-7.66 49 -8.32 49 -9 49 C-9.10884521 49.86512207 -9.21769043 50.73024414 -9.32983398 51.62158203 C-10.02896289 55.14600672 -11.1454915 57.83395106 -12.72265625 61.0546875 C-13.52993164 62.71757813 -13.52993164 62.71757813 -14.35351562 64.4140625 C-14.91748047 65.55617188 -15.48144531 66.69828125 -16.0625 67.875 C-16.63033203 69.0403125 -17.19816406 70.205625 -17.78320312 71.40625 C-19.18195175 74.2742724 -20.58772888 77.13861866 -22 80 C-27.30526393 79.29529421 -29.71282716 78.01094353 -33.75 74.4375 C-34.80917415 73.51739774 -35.86907978 72.59813691 -36.9296875 71.6796875 C-37.45014648 71.22303711 -37.97060547 70.76638672 -38.50683594 70.29589844 C-40.58406085 68.49310088 -42.72259498 66.77447891 -44.875 65.0625 C-45.67035156 64.42957031 -46.46570313 63.79664063 -47.28515625 63.14453125 C-51.21453137 60.0406076 -55.15027503 56.94482114 -59.09130859 53.85571289 C-62.40881701 51.25505541 -65.7131086 48.63937996 -69 46 C-67.63143242 41.89429725 -64.91257052 40.9155204 -61.3125 38.9375 C-60.69955078 38.58623047 -60.08660156 38.23496094 -59.45507812 37.87304688 C-55.73368677 35.78543709 -52.11181423 34.21901712 -48 33 C-48 32.34 -48 31.68 -48 31 C-46.02671276 29.62486545 -44.05527629 28.36735014 -42 27.125 C-36.45634252 23.66976041 -31.14796727 20.00210618 -25.9375 16.0625 C-25.27129639 15.56024902 -24.60509277 15.05799805 -23.91870117 14.54052734 C-20.66772219 12.07388515 -17.4515285 9.5716127 -14.2734375 7.01171875 C-13.68828369 6.54564209 -13.10312988 6.07956543 -12.50024414 5.59936523 C-10.91493296 4.33189599 -9.34178185 3.04925964 -7.76953125 1.765625 C-4.75538625 -0.15594558 -3.48710384 -0.61941976 0 0 Z " fill="#F9F9F9" transform="translate(442,492)"/>
<path d="M0 0 C0.72960937 0.75023437 1.45921875 1.50046875 2.2109375 2.2734375 C5.49218881 5.48115937 9.000035 8.1561539 12.6875 10.875 C13.74553833 11.66064331 13.74553833 11.66064331 14.82495117 12.4621582 C23.84998674 19.76276745 23.84998674 19.76276745 34 25 C34 25.66 34 26.32 34 27 C34.70125 27.2475 35.4025 27.495 36.125 27.75 C39 29 39 29 41.875 30.9375 C45.2002438 33.13216091 48.31628125 34.51234435 52 36 C52.66 36.33 53.32 36.66 54 37 C54 37.66 54 38.32 54 39 C55.485 39.495 55.485 39.495 57 40 C55.80894803 43.5731559 54.70545823 44.25003825 51.75 46.5 C47.57890019 49.74154042 43.51493697 53.06953837 39.5 56.5 C34.08557951 61.11084164 28.57933393 65.58957582 23 70 C22.1234375 70.73347656 21.246875 71.46695313 20.34375 72.22265625 C18 74 18 74 16 74 C16 74.66 16 75.32 16 76 C15.01 76 14.02 76 13 76 C11.41003 73.19120442 9.8293064 70.37730312 8.25 67.5625 C7.8065625 66.77939453 7.363125 65.99628906 6.90625 65.18945312 C3.95024322 59.90776455 1.35092243 54.57568892 -1 49 C-1.38881348 48.08202637 -1.77762695 47.16405273 -2.17822266 46.21826172 C-5.24765888 38.90933886 -8.19640966 31.55375553 -11.125 24.1875 C-14.35593498 16.00825626 -14.35593498 16.00825626 -17.7734375 7.90625 C-19.04476514 4.89393229 -19.692744 3.20394099 -19 0 C-12.14859285 -6.85140715 -7.28031662 -5.34880405 0 0 Z " fill="#F9F9F9" transform="translate(280,497)"/>
<path d="M0 0 C1.54003944 -0.00143509 1.54003944 -0.00143509 3.1111908 -0.00289917 C5.25991884 -0.00357471 7.40864901 -0.00176448 9.55737305 0.00244141 C12.86186199 0.00784853 16.16621807 0.00244994 19.47070312 -0.00390625 C21.56380238 -0.00324633 23.65690156 -0.00196695 25.75 0 C26.7415358 -0.00202423 27.73307159 -0.00404846 28.75465393 -0.00613403 C29.66327682 -0.00298187 30.57189972 0.00017029 31.50805664 0.00341797 C32.31062393 0.00421356 33.11319122 0.00500916 33.94007874 0.00582886 C35.77734375 0.1328125 35.77734375 0.1328125 36.77734375 1.1328125 C37.50467005 12.05463035 38.28106377 25.10990584 31.1640625 34.19140625 C25.98331102 38.9815911 20.29437513 40.384081 13.3125 40.3984375 C12.10013672 40.40101563 10.88777344 40.40359375 9.63867188 40.40625 C8.38505859 40.39851563 7.13144531 40.39078125 5.83984375 40.3828125 C4.59009766 40.39054687 3.34035156 40.39828125 2.05273438 40.40625 C-13.74645914 40.37268825 -13.74645914 40.37268825 -19.87109375 34.88671875 C-25.70808549 27.31212542 -27.39167737 15.40147992 -26.22265625 6.1328125 C-24.34765625 3.0078125 -24.34765625 3.0078125 -21.22265625 1.1328125 C-14.27176902 -0.18302493 -7.04743027 -0.0146567 0 0 Z " fill="#F9F9F9" transform="translate(405.22265625,303.8671875)"/>
<path d="M0 0 C0.84840958 -0.00307663 1.69681915 -0.00615326 2.57093811 -0.00932312 C3.48653 -0.0021376 4.40212189 0.00504791 5.34545898 0.01245117 C6.29412338 0.01290939 7.24278778 0.01336761 8.22019958 0.01383972 C10.23177334 0.01686284 12.24334475 0.02475093 14.25488281 0.03710938 C17.30534352 0.05520512 20.35549741 0.05762003 23.40600586 0.05737305 C25.36499281 0.062295 27.32397774 0.06812624 29.28295898 0.07495117 C30.63509239 0.07662041 30.63509239 0.07662041 32.01454163 0.07832336 C48.22213491 0.19711148 48.22213491 0.19711148 52.87280273 3.32104492 C55.23694335 6.94476866 55.46618044 9.80273656 55.27905273 13.99291992 C55.25246582 15.05700073 55.25246582 15.05700073 55.2253418 16.14257812 C54.91023617 23.88479428 53.49017314 30.69497439 47.77905273 36.24291992 C37.99072228 42.85004298 23.18218161 42.20897243 11.96655273 40.49291992 C5.49455078 39.1333339 0.83049032 37.18892892 -3.03344727 31.55541992 C-6.92480743 24.55353172 -7.40318887 17.67337681 -7.53344727 9.80541992 C-7.55125244 9.09450195 -7.56905762 8.38358398 -7.58740234 7.65112305 C-7.58422852 5.62182617 -7.58422852 5.62182617 -7.22094727 2.24291992 C-4.12929754 0.1818201 -3.4924684 -0.00668182 0 0 Z " fill="#F9F9F9" transform="translate(276.220947265625,303.757080078125)"/>
<path d="M0 0 C4.43148743 0.92205046 7.18270684 3.12373862 10.32421875 6.3671875 C12.50812297 8.49509418 14.8679186 10.34699642 17.25 12.25 C24.17123288 17.91952055 24.17123288 17.91952055 27.25 20.75 C27.81203125 21.26046875 28.3740625 21.7709375 28.953125 22.296875 C30 24 30 24 29.73608398 26.16699219 C28.85035753 29.57593738 27.60583095 32.78065298 26.26953125 36.03125 C25.99662766 36.70361694 25.72372406 37.37598389 25.44255066 38.06872559 C24.86381283 39.49167166 24.28289879 40.91373433 23.69995117 42.33496094 C22.82756049 44.4632582 21.96302501 46.59461099 21.09960938 48.7265625 C17.62553924 57.26436095 13.94902009 65.66887048 10 74 C7.625 74.125 7.625 74.125 5 74 C2.68956183 71.68956183 2.39717044 70.40316416 1.57958984 67.27832031 C1.31947113 66.29679993 1.05935242 65.31527954 0.79135132 64.30401611 C0.51731476 63.23947205 0.2432782 62.17492798 -0.0390625 61.078125 C-0.32478119 59.98538269 -0.61049988 58.89264038 -0.90487671 57.76678467 C-1.50837076 55.45088217 -2.10834033 53.13405883 -2.70507812 50.81640625 C-3.61834443 47.2758027 -4.5466422 43.73938606 -5.4765625 40.203125 C-6.06081006 37.95336222 -6.64417234 35.70336932 -7.2265625 33.453125 C-7.50464752 32.39667786 -7.78273254 31.34023071 -8.06924438 30.25177002 C-11.06881444 18.50318617 -11.06881444 18.50318617 -9.08203125 13.85009766 C-8.66308594 13.21120605 -8.24414062 12.57231445 -7.8125 11.9140625 C-7.36132812 11.21152344 -6.91015625 10.50898437 -6.4453125 9.78515625 C-5.96835937 9.07230469 -5.49140625 8.35945312 -5 7.625 C-4.52304687 6.88894531 -4.04609375 6.15289063 -3.5546875 5.39453125 C-2.3818978 3.58843511 -1.19256194 1.79310206 0 0 Z " fill="#F8F8F8" transform="translate(383,568)"/>
<path d="M0 0 C2.72235819 1.23864664 5.37477638 2.56745412 8 4 C8.0744389 8.0384057 8.12873729 12.07654293 8.16479492 16.11547852 C8.17983432 17.48794517 8.20027133 18.86036414 8.22631836 20.23266602 C8.26291221 22.21088656 8.27816698 24.18946514 8.29296875 26.16796875 C8.3086792 27.35672607 8.32438965 28.5454834 8.34057617 29.77026367 C7.87957944 34.14196677 6.39178332 36.7854047 3.09765625 39.66015625 C2.42605469 40.12292969 1.75445312 40.58570313 1.0625 41.0625 C-1.37347993 42.77522906 -3.15124684 44.17348903 -5.125 46.4375 C-7 48 -7 48 -9.765625 47.77270508 C-13.10972923 46.97378525 -15.61734441 45.85089188 -18.625 44.19921875 C-19.66140625 43.63396484 -20.6978125 43.06871094 -21.765625 42.48632812 C-23.36664063 41.5959082 -23.36664063 41.5959082 -25 40.6875 C-26.06734375 40.10548828 -27.1346875 39.52347656 -28.234375 38.92382812 C-33.30368333 36.14012212 -38.26748264 33.32755127 -43 30 C-43.74374835 25.89788282 -43.64248833 22.86261018 -42 19 C-37.49360451 15.67687891 -32.60521647 13.54197483 -27.52587891 11.23144531 C-22.27904966 8.67345124 -17.35371716 5.48019785 -12.42236328 2.36523438 C-7.91071615 -0.35432656 -5.2450536 -1.87571453 0 0 Z " fill="#F9F9F9" transform="translate(176,169)"/>
<path d="M0 0 C3.28383531 1.73485639 4.89297068 4.66137063 6.8203125 7.71875 C7.23152344 8.32332031 7.64273438 8.92789063 8.06640625 9.55078125 C8.45441406 10.15535156 8.84242188 10.75992188 9.2421875 11.3828125 C9.7695752 12.19806396 9.7695752 12.19806396 10.30761719 13.02978516 C12.8298321 19.85526688 9.99124308 27.23482603 8.2265625 33.93359375 C7.93801392 35.05568741 7.64946533 36.17778107 7.35217285 37.33387756 C6.43276064 40.90175815 5.5017152 44.46648289 4.5703125 48.03125 C3.94323937 50.45618095 3.31692867 52.8813092 2.69140625 55.30664062 C1.15986687 61.23799116 -0.38122362 67.16679671 -1.9296875 73.09375 C-3.9096875 73.09375 -5.8896875 73.09375 -7.9296875 73.09375 C-9.88140336 68.95749937 -11.83040509 64.82002464 -13.7734375 60.6796875 C-15.03462252 57.99247837 -16.30451739 55.31049697 -17.5859375 52.6328125 C-20.4024376 46.68520325 -22.95673383 40.67638275 -25.3046875 34.53125 C-25.56781738 33.8518335 -25.83094727 33.17241699 -26.10205078 32.47241211 C-27.36393325 29.09197579 -27.9296875 26.75729546 -27.9296875 23.09375 C-26.53125 21.48828125 -26.53125 21.48828125 -24.5546875 19.90625 C-23.82507813 19.30425781 -23.09546875 18.70226562 -22.34375 18.08203125 C-21.54710937 17.42589844 -20.75046875 16.76976562 -19.9296875 16.09375 C-18.25568864 14.60193714 -16.5891821 13.10168085 -14.9296875 11.59375 C-14.09179688 10.84351563 -13.25390625 10.09328125 -12.390625 9.3203125 C-10.79461109 7.87629992 -9.21520052 6.41363696 -7.65625 4.9296875 C-6.96273438 4.28257812 -6.26921875 3.63546875 -5.5546875 2.96875 C-4.94882812 2.38867188 -4.34296875 1.80859375 -3.71875 1.2109375 C-1.9296875 0.09375 -1.9296875 0.09375 0 0 Z " fill="#F9F9F9" transform="translate(326.9296875,568.90625)"/>
<path d="M0 0 C1.7114344 0.00033989 1.7114344 0.00033989 3.45744324 0.00068665 C4.6887648 0.0161705 5.92008636 0.03165436 7.1887207 0.04760742 C9.08011528 0.05397469 9.08011528 0.05397469 11.00971985 0.06047058 C14.35875138 0.0744299 17.70716954 0.10137513 21.05603027 0.13458252 C24.47455549 0.16529512 27.8931441 0.17897842 31.31176758 0.1940918 C38.01701544 0.22720394 44.72197328 0.27743599 51.42700195 0.34057617 C51.42700195 1.00057617 51.42700195 1.66057617 51.42700195 2.34057617 C52.41700195 2.67057617 53.40700195 3.00057617 54.42700195 3.34057617 C53.93683926 9.8352318 53.93683926 9.8352318 51.70762634 12.0447998 C48.98995379 13.58889268 47.30109876 13.73192484 44.18701172 13.76049805 C43.14235245 13.77640991 42.09769318 13.79232178 41.02137756 13.80871582 C39.33690773 13.80901794 39.33690773 13.80901794 37.6184082 13.80932617 C35.88009987 13.82074646 35.88009987 13.82074646 34.10667419 13.83239746 C31.6564245 13.84320064 29.20612875 13.8460507 26.75585938 13.84155273 C23.0067873 13.84058065 19.25976276 13.88219898 15.51098633 13.92651367 C13.13013122 13.93172077 10.749269 13.93440886 8.3684082 13.93432617 C7.24745255 13.95072144 6.12649689 13.9671167 4.97157288 13.98400879 C-2.79469686 13.91503798 -2.79469686 13.91503798 -6.78808594 10.9675293 C-8.57299805 8.34057617 -8.57299805 8.34057617 -9.07299805 5.71557617 C-7.96771626 0.46548768 -4.93423588 -0.03267706 0 0 Z " fill="#0E0E0E" transform="translate(332.572998046875,413.659423828125)"/>
<path d="M0 0 C7.53650274 0.84855438 15.37675561 0.70434129 22.88671875 -0.328125 C26.63671875 -0.703125 26.63671875 -0.703125 29.63671875 1.296875 C30.19921875 4.671875 30.19921875 4.671875 29.63671875 8.296875 C23.72012223 13.76972678 15.99376972 14.72241314 8.23046875 14.5546875 C2.23162263 13.95841665 -3.86256088 12.48406204 -8.36328125 8.296875 C-8.80078125 4.734375 -8.80078125 4.734375 -8.36328125 1.296875 C-4.8924752 -1.0169957 -3.9211406 -0.60882775 0 0 Z " fill="#0D0D0D" transform="translate(344.36328125,383.703125)"/>
<path d="M0 0 C5.56004973 0.47743905 9.5074604 1.39602999 14.5 4.0625 C16.06234375 4.88427734 16.06234375 4.88427734 17.65625 5.72265625 C18.4296875 6.14417969 19.203125 6.56570313 20 7 C20 11 20 11 18.4609375 12.74609375 C17.77257812 13.30425781 17.08421875 13.86242187 16.375 14.4375 C15.27865234 15.33275391 15.27865234 15.33275391 14.16015625 16.24609375 C13.44730469 16.82488281 12.73445312 17.40367187 12 18 C11.44183594 18.52722656 10.88367188 19.05445313 10.30859375 19.59765625 C8.8125 21 8.8125 21 6 23 C1.81395349 22.81395349 1.81395349 22.81395349 0 21 C-0.08685603 19.43827255 -0.10702219 17.87270656 -0.09765625 16.30859375 C-0.09443359 15.36435547 -0.09121094 14.42011719 -0.08789062 13.44726562 C-0.07951172 12.45404297 -0.07113281 11.46082031 -0.0625 10.4375 C-0.05798828 9.44041016 -0.05347656 8.44332031 -0.04882812 7.41601562 C-0.03700007 4.94395151 -0.02051849 2.47200482 0 0 Z " fill="#0E0E0E" transform="translate(587,338)"/>
<path d="M0 0 C2 0 2 0 4.1875 2.0625 C5.12769881 3.03907555 6.06485458 4.01858436 7 5 C8.22502132 6.25406278 9.45431239 7.50396669 10.6875 8.75 C11.26886719 9.34296875 11.85023438 9.9359375 12.44921875 10.546875 C13.95513974 12.09641804 13.95513974 12.09641804 16 13 C16 14.98 16 16.96 16 19 C13.43923903 19.67404284 10.87673417 20.339414 8.3125 21 C7.2306543 21.28617187 7.2306543 21.28617187 6.12695312 21.578125 C2.33149039 22.54865428 -1.04615439 23.24955239 -5 23 C-5.50869094 14.77616307 -4.84613658 8.36790019 -1 1 C-0.67 0.67 -0.34 0.34 0 0 Z " fill="#101010" transform="translate(549,355)"/>
<path d="M0 0 C2.8917284 7.51333004 4.64323227 13.92386148 4 22 C-3.34918342 22.43230491 -9.90215087 20.81774185 -17 19 C-17.85546875 16.8515625 -17.85546875 16.8515625 -18 14 C-16.14569031 11.833098 -14.47455671 10.17795222 -12.3125 8.375 C-11.76916016 7.89804687 -11.22582031 7.42109375 -10.66601562 6.9296875 C-2.70649957 0 -2.70649957 0 0 0 Z " fill="#0F0F0F" transform="translate(616,355)"/>
<path d="M0 0 C0.98031228 2.56113 1.20375036 4.38755652 0.33251953 7.00634766 C-0.69814046 9.30936429 -1.79632741 11.56222083 -2.9375 13.8125 C-3.32357422 14.60076172 -3.70964844 15.38902344 -4.10742188 16.20117188 C-5.05931015 18.14020354 -6.02803338 20.07095465 -7 22 C-12.07480603 19.5834257 -16.15833149 17.02765596 -18.375 11.6875 C-18.684375 10.3571875 -18.684375 10.3571875 -19 9 C-19.66 9 -20.32 9 -21 9 C-21.33 7.35 -21.66 5.7 -22 4 C-19.4604163 3.32438628 -16.91881165 2.65934172 -14.375 2 C-13.66214844 1.80921875 -12.94929687 1.6184375 -12.21484375 1.421875 C-8.04151456 0.34982713 -4.34821249 -0.21946814 0 0 Z " fill="#0B0B0B" transform="translate(569,384)"/>
<path d="M0 0 C-0.33 6.93 -0.66 13.86 -1 21 C-2.98 21.99 -2.98 21.99 -5 23 C-15.55808656 14.738041 -15.55808656 14.738041 -20 10 C-18.75349761 6.12199257 -16.38084646 4.73440872 -12.8671875 2.8828125 C-8.29458575 0.72087109 -5.11554461 0 0 0 Z " fill="#0C0C0C" transform="translate(577,338)"/>
<path d="M0 0 C7.15511126 0.55039317 14.0400739 2.31306669 21 4 C19.5485931 11.53024053 14.11578357 17.69115249 8 22 C7.34 22 6.68 22 6 22 C5.63648438 21.03900391 5.63648438 21.03900391 5.265625 20.05859375 C3.64960929 15.88803012 2.06356072 11.92504135 -0.3125 8.125 C-2 5 -2 5 -1.8125 2.625 C-1 1 -1 1 0 0 Z " fill="#0B0B0B" transform="translate(596,384)"/>
<path d="M0 0 C1.65 0 3.3 0 5 0 C5.99 2.97 6.98 5.94 8 9 C8.66 9 9.32 9 10 9 C13 15.625 13 15.625 13 19 C9.16163211 20.23691651 5.44402655 20.1328329 1.4375 20.125 C0.76525391 20.12886719 0.09300781 20.13273437 -0.59960938 20.13671875 C-3.67499752 20.13061073 -6.06026313 19.97991229 -9 19 C-8.38737369 16.17919621 -7.52845191 13.86191144 -6.15234375 11.328125 C-5.79462891 10.66425781 -5.43691406 10.00039063 -5.06835938 9.31640625 C-4.69517578 8.63449219 -4.32199219 7.95257813 -3.9375 7.25 C-3.56044922 6.55261719 -3.18339844 5.85523438 -2.79492188 5.13671875 C-1.86726612 3.42231698 -0.93416546 1.71086339 0 0 Z " fill="#121212" transform="translate(580,392)"/>
<path d="M0 0 C3.4375 0.875 3.4375 0.875 5.4375 3.875 C5.5625 6.5625 5.5625 6.5625 5.4375 8.875 C3.4575 9.865 3.4575 9.865 1.4375 10.875 C1.4375 11.535 1.4375 12.195 1.4375 12.875 C-0.8125 13.1875 -0.8125 13.1875 -3.5625 12.875 C-5.9375 10.6875 -5.9375 10.6875 -7.5625 7.875 C-7.49398663 4.99743866 -6.9061338 3.447723 -5.4375 1 C-3.5625 -0.125 -3.5625 -0.125 0 0 Z " fill="#131313" transform="translate(582.5625,369.125)"/>
<path d="M0 0 C0.33 0.66 0.66 1.32 1 2 C-0.21562622 2.78842285 -0.21562622 2.78842285 -1.45581055 3.59277344 C-4.25039576 5.7842241 -4.25039576 5.7842241 -4.65942383 9.02441406 C-4.6829895 10.75256348 -4.6829895 10.75256348 -4.70703125 12.515625 C-4.73603516 13.76601562 -4.76503906 15.01640625 -4.79492188 16.3046875 C-4.80072266 17.60664063 -4.80652344 18.90859375 -4.8125 20.25 C-4.83763672 21.56742188 -4.86277344 22.88484375 -4.88867188 24.2421875 C-4.9476013 27.49509156 -4.98384097 30.74664795 -5 34 C-5.33 34 -5.66 34 -6 34 C-6.14860594 29.80092955 -6.25732637 25.60326021 -6.32958984 21.40234375 C-6.35971791 19.97433814 -6.40063103 18.54651694 -6.45263672 17.11914062 C-6.52564914 15.0633399 -6.55948862 13.00998787 -6.5859375 10.953125 C-6.6173584 9.71723633 -6.6487793 8.48134766 -6.68115234 7.20800781 C-6 4 -6 4 -2.96337891 1.56542969 C-1.49650635 0.79054199 -1.49650635 0.79054199 0 0 Z " fill="#BBBBBB" transform="translate(201,170)"/>
<path d="M0 0 C0 3.62941351 -0.64760255 4.32313393 -3 7 C-4.66215268 8.33895632 -6.32963607 9.67130142 -8 11 C-10.37850688 13.28949831 -12.69574269 15.63597809 -15 18 C-15.66 17.67 -16.32 17.34 -17 17 C-11.62789574 10.92530665 -6.3343346 5.09500827 0 0 Z " fill="#303030" transform="translate(265,168)"/>
<path d="M0 0 C0.33 0 0.66 0 1 0 C1 2.31 1 4.62 1 7 C1.66 7.33 2.32 7.66 3 8 C3 12 3 12 1.6875 13.484375 C0.125 14.65625 -1.4375 15.828125 -3 17 C-3.66 16.67 -4.32 16.34 -5 16 C-4.35546875 15.46890625 -3.7109375 14.9378125 -3.046875 14.390625 C-0.48217775 11.39521524 -0.41926861 9.64317797 -0.25 5.75 C-0.19328125 4.67234375 -0.1365625 3.5946875 -0.078125 2.484375 C-0.05234375 1.66453125 -0.0265625 0.8446875 0 0 Z " fill="#C5C5C5" transform="translate(220,273)"/>
<path d="M0 0 C0.66 0.33 1.32 0.66 2 1 C1.0919838 2.13199353 0.17316174 3.25532363 -0.75 4.375 C-1.26046875 5.00148438 -1.7709375 5.62796875 -2.296875 6.2734375 C-4.09511518 8.09642411 -5.69940438 8.92451831 -8 10 C-8.66 10.66 -9.32 11.32 -10 12 C-10 10.68 -10 9.36 -10 8 C-8.06640625 6.11328125 -8.06640625 6.11328125 -5.5625 4.3125 C-4.73878906 3.71050781 -3.91507812 3.10851562 -3.06640625 2.48828125 C-2.38449219 1.99714844 -1.70257813 1.50601563 -1 1 C-0.67 0.67 -0.34 0.34 0 0 Z " fill="#2A2A2A" transform="translate(306,563)"/>
<path d="M0 0 C2 0 2 0 4.5625 2.375 C7 5 7 5 8 7 C6.3125 7.8125 6.3125 7.8125 4 8 C1.25 5.5625 1.25 5.5625 -1 3 C-0.67 2.01 -0.34 1.02 0 0 Z " fill="#272727" transform="translate(549,355)"/>
<path d="M0 0 C1.125 3.75 1.125 3.75 0 6 C0.66 6 1.32 6 2 6 C1 8 1 8 -1 10 C-1.71408334 11.98356483 -2.38617742 13.98315437 -3 16 C-4.49828872 12.11764181 -3.43110582 9.56550712 -2.0625 5.75 C-1.68222656 4.67234375 -1.30195312 3.5946875 -0.91015625 2.484375 C-0.45962891 1.25460937 -0.45962891 1.25460937 0 0 Z " fill="#404040" transform="translate(101,573)"/>
<path d="M0 0 C0.144375 0.598125 0.28875 1.19625 0.4375 1.8125 C0.8872439 3.56150404 1.42892341 5.28677023 2 7 C1.01 7.66 0.02 8.32 -1 9 C-2.19232613 11.05003955 -2.19232613 11.05003955 -3 13 C-4 11 -4 11 -3.22265625 8.3984375 C-2.83980469 7.40070312 -2.45695312 6.40296875 -2.0625 5.375 C-1.68222656 4.37210938 -1.30195313 3.36921875 -0.91015625 2.3359375 C-0.60980469 1.56507813 -0.30945313 0.79421875 0 0 Z " fill="#434343" transform="translate(444,512)"/>
<path d="M0 0 C0.66 0.33 1.32 0.66 2 1 C0.02 3.31 -1.96 5.62 -4 8 C-5.32 7.34 -6.64 6.68 -8 6 C-5.36 4.02 -2.72 2.04 0 0 Z " fill="#C7C7C7" transform="translate(416,508)"/>
<path d="M0 0 C0.66 0.33 1.32 0.66 2 1 C0.35 2.98 -1.3 4.96 -3 7 C-3.99 6.34 -4.98 5.68 -6 5 C-4.02 3.35 -2.04 1.7 0 0 Z " fill="#1D1D1D" transform="translate(376,293)"/>
<path d="M0 0 C1.9375 0.375 1.9375 0.375 4 1 C4.33 1.66 4.66 2.32 5 3 C2.69 3.66 0.38 4.32 -2 5 C-1.34 3.35 -0.68 1.7 0 0 Z " fill="#C3C3C3" transform="translate(383,568)"/>
<path d="M0 0 C0.99 0.33 1.98 0.66 3 1 C2.195625 1.45375 1.39125 1.9075 0.5625 2.375 C-2.08856572 3.74725665 -2.08856572 3.74725665 -3 6 C-5.97 5.505 -5.97 5.505 -9 5 C-8.443125 4.731875 -7.88625 4.46375 -7.3125 4.1875 C-4.90694879 3.00469337 -4.90694879 3.00469337 -2.4375 1.3125 C-1.633125 0.879375 -0.82875 0.44625 0 0 Z " fill="#4D4D4D" transform="translate(167,514)"/>
<path d="M0 0 C0.66 0.33 1.32 0.66 2 1 C-0.25 3.5 -0.25 3.5 -3 6 C-7 6 -7 6 -9 5 C-7.54735962 4.1361871 -6.0876837 3.28419546 -4.625 2.4375 C-3.40683594 1.72400391 -3.40683594 1.72400391 -2.1640625 0.99609375 C-1.44992187 0.66738281 -0.73578125 0.33867187 0 0 Z " fill="#B2B2B2" transform="translate(406,474)"/>
<path d="M0 0 C0.66 0.33 1.32 0.66 2 1 C-2.43076923 6.78461538 -2.43076923 6.78461538 -5.3125 7.875 C-5.869375 7.91625 -6.42625 7.9575 -7 8 C-5.50902342 4.2047869 -3.24299151 2.38957269 0 0 Z " fill="#393939" transform="translate(630,342)"/>
<path d="M0 0 C0.66 0.33 1.32 0.66 2 1 C0.02 3.31 -1.96 5.62 -4 8 C-4.99 7.34 -5.98 6.68 -7 6 C-4.69 4.02 -2.38 2.04 0 0 Z " fill="#CCCCCC" transform="translate(425,501)"/>
<path d="M0 0 C-1.65 1.32 -3.3 2.64 -5 4 C-5.33 3.67 -5.66 3.34 -6 3 C-7.66617115 2.95936168 -9.33388095 2.957279 -11 3 C-9.66666667 2.33333333 -8.33333333 1.66666667 -7 1 C-6.319375 0.608125 -5.63875 0.21625 -4.9375 -0.1875 C-3 -1 -3 -1 0 0 Z " fill="#C4C4C4" transform="translate(618,648)"/>
</svg>
